<svg version="1.1" id="Layer_1" xmlns="http://www.w3.org/2000/svg" xmlns:xlink="http://www.w3.org/1999/xlink" x="0px" y="0px"
	 width="100%" viewBox="0 0 1024 1024" enable-background="new 0 0 1024 1024" xml:space="preserve">
<path fill="#000000" opacity="1.000000" stroke="none" 
	d="
M516.743408,428.000000 
	C516.700195,371.850189 516.857971,316.199097 516.511047,260.551178 
	C516.382446,239.912003 516.548767,219.268356 516.385193,198.628403 
	C516.241516,180.502350 516.169556,162.341156 516.518372,144.198013 
	C516.569397,141.546127 517.314148,140.048401 520.035645,139.098587 
	C529.148621,135.918030 535.328064,129.752823 537.439819,120.145744 
	C538.049866,117.370270 539.478699,116.706436 541.946533,116.734612 
	C547.443970,116.797394 552.948547,116.899323 558.438721,116.686829 
	C561.747620,116.558762 563.101990,117.915405 563.862854,121.044525 
	C566.490540,131.851456 573.231873,138.712128 584.104736,141.535919 
	C598.494385,145.273087 613.383423,137.015259 617.121033,122.489342 
	C618.345032,117.732376 620.406006,116.295891 625.017029,116.687263 
	C629.482727,117.066307 634.007446,116.788864 638.505432,116.733444 
	C641.178345,116.700508 642.713379,117.576897 643.369507,120.508949 
	C646.310913,133.652954 656.296631,142.027405 669.378784,142.634323 
	C681.463806,143.194962 693.509216,135.062958 697.061401,122.951225 
	C698.550415,117.874016 700.865784,116.287788 705.804871,116.748344 
	C709.767029,117.117798 713.812317,117.006744 717.788635,116.696930 
	C721.744995,116.388672 723.324768,118.175079 724.302551,121.789932 
	C727.032288,131.881653 733.462524,138.671677 743.621582,141.475296 
	C758.885132,145.687637 774.057983,137.187378 778.275696,121.765022 
	C779.358459,117.806091 781.158081,116.716858 784.833557,116.809502 
	C790.160461,116.943771 795.497253,116.828323 800.826050,116.682541 
	C803.559753,116.607750 804.844666,117.501572 805.619629,120.393272 
	C808.214783,130.076660 814.304993,136.754776 824.058105,139.668915 
	C827.129333,140.586578 828.066895,142.227814 828.045044,145.446854 
	C827.880920,169.604019 828.385986,193.773987 827.786255,217.917694 
	C827.149292,243.561874 828.283875,269.184204 827.863464,294.812927 
	C826.824951,358.119202 827.695007,421.428833 827.416443,484.736206 
	C827.401062,488.232025 827.409912,491.742279 827.703125,495.220886 
	C827.971436,498.404419 826.847046,499.934937 823.590637,499.920288 
	C811.763062,499.867126 799.934692,499.925476 788.107971,499.806854 
	C782.237854,499.747986 778.800842,496.776764 776.935486,491.025970 
	C772.971130,478.803864 764.689636,472.959625 752.453369,472.972687 
	C740.344421,472.985596 731.358948,479.378143 727.346802,491.335510 
	C725.535828,496.732788 722.511536,499.789734 716.585144,499.796173 
	C712.590576,499.800537 708.609924,499.769165 704.615173,499.654816 
	C698.945679,499.492493 696.353394,496.533234 694.854919,491.474670 
	C691.368530,479.705841 682.171570,473.010010 670.033691,473.047516 
	C658.041931,473.084595 648.829773,479.701080 645.492004,491.219086 
	C643.945435,496.555695 641.216125,499.437744 635.405579,499.667053 
	C631.417114,499.824463 627.433716,500.043365 623.437500,500.020569 
	C617.200500,499.984955 613.130737,497.265839 611.223877,491.089996 
	C608.661926,482.792084 603.366333,476.815582 594.889526,474.235046 
	C579.766052,469.631042 566.784119,476.114532 561.372070,491.034851 
	C559.368103,496.559357 555.982361,499.552246 549.932068,499.498291 
	C544.941162,499.453766 539.943542,499.694244 534.955139,499.936493 
	C523.150330,500.509766 517.319641,497.221405 516.820923,481.978302 
	C516.347168,467.498444 516.724854,452.990692 516.729980,438.495209 
	C516.731140,435.163483 516.739197,431.831726 516.743408,428.000000 
M585.192017,386.308105 
	C615.818970,417.651764 652.318237,429.793182 695.253723,418.862854 
	C746.297302,405.868469 787.747375,352.472229 777.342773,293.978638 
	C776.549011,289.516510 777.411621,287.134094 781.174072,284.559967 
	C799.956360,271.709656 806.425842,245.505798 796.101318,225.468201 
	C782.015076,198.129898 747.644043,191.743668 723.960205,212.277878 
	C720.692566,215.111023 718.503479,215.122833 714.866028,213.088501 
	C700.709656,205.171356 685.414307,200.869965 669.168823,200.372009 
	C647.729187,199.714844 627.928040,205.408295 610.041992,217.074310 
	C576.435974,238.993637 557.387756,269.559326 556.197021,310.259094 
	C555.347290,339.299652 565.243347,364.374603 585.192017,386.308105 
z"/>
<path fill="#000000" opacity="1.000000" stroke="none" 
	d="
M291.929260,306.938965 
	C312.704773,282.240509 336.898438,262.006012 363.634735,244.732956 
	C393.812195,225.236740 426.117615,210.682571 461.253418,202.585220 
	C470.187103,200.526382 479.146393,198.752792 488.197327,197.387695 
	C493.961609,196.518326 494.315277,196.848190 494.310791,203.059509 
	C494.278564,247.721039 494.224518,292.382568 494.187134,337.044098 
	C494.166199,362.040802 494.023529,387.038574 494.212860,412.033752 
	C494.306519,424.394073 492.646362,436.621094 492.162384,448.928162 
	C491.571503,463.953430 494.089691,478.819672 494.569672,493.809906 
	C494.998230,507.193085 506.912506,520.616821 519.779785,524.542236 
	C532.198181,528.330750 544.904602,527.807312 557.395447,526.105713 
	C568.977905,524.527832 577.273132,517.325806 582.527893,506.815399 
	C583.244507,505.382050 583.491516,503.460236 585.714233,503.482025 
	C587.733887,503.501801 588.526184,504.961487 589.236755,506.536041 
	C595.557983,520.543091 607.089722,526.674866 621.780518,527.506958 
	C631.097168,528.034546 640.446533,527.836121 649.247620,523.951782 
	C657.026672,520.518494 662.631531,514.786011 666.662842,507.403229 
	C667.532715,505.810211 668.171143,503.844116 670.429016,503.889313 
	C672.721008,503.935120 673.181213,506.014313 673.994202,507.608276 
	C680.120117,519.619385 689.955139,526.112549 703.361023,526.873535 
	C711.958496,527.361633 720.604370,528.173096 729.012512,524.998352 
	C737.830750,521.668762 744.444214,516.008789 748.833862,507.673462 
	C749.722961,505.985199 750.166077,503.634613 752.709106,503.581635 
	C755.276855,503.528076 755.689575,505.796844 756.613953,507.530212 
	C763.062317,519.622070 773.461853,525.822571 786.848877,526.497681 
	C798.314514,527.075867 809.832886,527.086365 821.316711,526.246155 
	C827.227783,525.813599 827.967407,526.521484 827.977905,532.442322 
	C827.989929,539.273926 827.934265,546.107849 828.099792,552.936096 
	C828.173462,555.975403 827.195679,557.874817 824.295105,559.158997 
	C819.563110,561.254150 815.104309,563.945923 811.331726,567.524963 
	C808.801941,569.924927 806.987183,569.487488 804.555176,567.277466 
	C786.521240,550.889160 765.323975,546.594482 742.812195,554.471741 
	C733.792053,557.628113 728.316223,556.621460 720.729187,551.590942 
	C699.017212,537.195129 668.237183,539.097595 647.093994,555.345337 
	C642.885803,558.579163 640.810852,557.631531 637.751282,554.295593 
	C624.621094,539.979065 608.768738,530.361694 589.232544,527.878479 
	C566.103455,524.938660 545.267883,530.264343 527.595093,546.044006 
	C523.122864,550.037109 522.497009,550.021973 518.946838,544.743835 
	C506.839355,526.743530 491.365173,512.720398 470.996124,504.702271 
	C442.543945,493.502197 415.204376,496.683685 388.999756,511.789764 
	C384.719208,514.257385 380.575043,516.998413 376.515961,520.721008 
	C357.943146,492.805542 333.882843,473.310883 300.749054,467.351318 
	C267.541687,461.378510 238.332184,470.941406 211.860275,491.742554 
	C217.583710,421.060852 245.501984,360.203644 291.929260,306.938965 
z"/>
<path fill="#000000" opacity="1.000000" stroke="none" 
	d="
M142.794388,759.851196 
	C173.264832,714.874084 215.037109,688.430725 268.804535,683.158752 
	C310.221375,679.097717 347.919556,690.783875 381.307739,715.789429 
	C414.911560,740.956421 436.333984,773.947388 442.876160,815.559814 
	C446.026520,835.598083 446.000549,856.044189 444.210236,876.326416 
	C443.249054,887.216003 433.947021,894.921265 422.016815,895.190796 
	C411.194214,895.435181 400.362854,895.312805 389.535339,895.313416 
	C306.412201,895.318237 223.289078,895.320435 140.165939,895.306335 
	C123.606758,895.303528 115.309883,887.129272 114.965942,870.516357 
	C114.890106,866.853821 114.954552,863.186646 115.028557,859.523071 
	C115.334175,844.393066 115.742203,829.272278 119.215363,814.433655 
	C123.776787,794.945618 131.509689,776.828552 142.794388,759.851196 
z"/>
<path fill="#000000" opacity="1.000000" stroke="none" 
	d="
M186.787918,650.305542 
	C189.764923,659.389038 193.151703,667.892334 196.963470,676.222961 
	C197.826340,678.108826 198.252670,679.591064 195.963516,680.767700 
	C186.059982,685.857849 176.329056,691.267883 166.008240,697.696289 
	C150.260193,665.567322 140.604675,632.193237 134.935318,597.635132 
	C118.706795,498.712799 134.714233,405.087219 184.713577,318.302307 
	C231.131622,237.733505 297.217041,178.342743 383.892792,142.997131 
	C421.746826,127.560577 460.800171,117.015343 502.033325,114.469521 
	C502.011688,117.892715 500.194489,119.387398 499.162201,121.190750 
	C494.580811,129.193985 493.568939,137.823898 494.273865,146.792587 
	C494.537415,150.145294 493.578888,151.896439 489.785461,152.382446 
	C459.074890,156.317093 429.478821,164.526413 400.852936,176.247940 
	C364.514618,191.127472 331.001160,210.840134 301.136017,236.353485 
	C251.165771,279.042358 213.926620,330.814911 190.999313,392.659119 
	C179.721710,423.079346 172.168915,454.404022 168.639282,486.584473 
	C165.914825,511.424255 165.885330,536.378967 168.027756,561.354492 
	C170.628876,591.677307 176.420578,621.255493 186.787918,650.305542 
z"/>
<path fill="#000000" opacity="1.000000" stroke="none" 
	d="
M362.805298,539.317261 
	C377.414032,573.924255 372.786865,605.710388 350.021545,634.804321 
	C314.626587,680.038818 236.768539,678.844055 206.539841,619.703003 
	C185.933548,579.387756 195.337601,534.257446 230.330475,505.955933 
	C260.474579,481.576019 308.147003,482.391174 337.618073,507.578522 
	C348.023193,516.471191 356.592957,526.682190 362.805298,539.317261 
z"/>
<path fill="#000000" opacity="1.000000" stroke="none" 
	d="
M425.825592,694.645142 
	C475.850250,691.015625 515.459595,710.268616 546.912903,747.654053 
	C566.813721,771.308167 575.305603,799.315796 576.042358,829.789368 
	C576.412170,845.084351 577.197205,860.456421 575.366272,875.700256 
	C573.854370,888.287903 565.615234,895.219849 552.945923,895.275757 
	C530.455688,895.374878 507.964783,895.334717 485.474152,895.327820 
	C474.006042,895.324341 467.915131,889.437195 467.739258,877.846436 
	C467.559784,866.020996 467.612000,854.190796 467.669617,842.363220 
	C467.828247,809.806885 459.925629,779.453430 442.967651,751.565735 
	C432.006866,733.540649 417.715942,718.566223 400.972534,705.840637 
	C399.690826,704.866394 397.991974,704.230347 397.367279,701.730713 
	C406.232300,697.671143 415.612885,695.488953 425.825592,694.645142 
z"/>
<path fill="#000000" opacity="1.000000" stroke="none" 
	d="
M474.260986,528.614014 
	C495.911865,541.725159 510.585999,559.576050 515.780151,584.463257 
	C526.298706,634.861877 483.824799,686.366577 428.261902,678.519653 
	C403.945892,675.085510 386.347198,661.984558 373.591644,641.557129 
	C371.813812,638.710022 371.836639,636.303040 373.666565,633.313538 
	C386.275726,612.714172 390.788055,590.209106 388.598816,566.315552 
	C388.038788,560.203430 386.973358,554.071350 384.730194,548.306335 
	C383.516815,545.187866 384.215942,543.098083 386.442352,540.765869 
	C403.194702,523.217163 424.014709,517.759399 447.445465,520.065186 
	C456.835114,520.989197 465.601685,524.068542 474.260986,528.614014 
z"/>
<path fill="#000000" opacity="1.000000" stroke="none" 
	d="
M657.450562,726.554382 
	C677.844299,748.917053 688.258484,774.759949 688.451721,804.838013 
	C688.537292,818.152405 689.530762,831.453796 688.424133,844.774414 
	C687.368835,857.477905 680.102844,865.515076 667.517029,865.834717 
	C646.030945,866.380249 624.524597,866.199646 603.026978,866.165100 
	C597.830872,866.156799 595.117371,863.464966 594.558716,858.219543 
	C593.479736,848.088074 594.044922,837.906189 594.033752,827.752686 
	C593.984192,782.844360 576.919617,745.946167 542.486023,717.095398 
	C538.319458,713.604492 534.170105,710.093140 529.141846,705.857666 
	C551.060425,694.042847 573.294250,691.046326 596.869873,694.485840 
	C620.848083,697.984009 640.233826,709.736328 657.450562,726.554382 
M663.312256,823.763794 
	C663.684937,826.830994 665.258728,828.855347 668.493713,828.492432 
	C671.160278,828.193359 672.521606,826.039246 672.555481,823.536743 
	C672.674316,814.738281 672.747803,805.932129 672.483521,797.139648 
	C672.397827,794.287964 671.095459,791.314636 667.474976,791.410645 
	C663.669983,791.511353 663.274841,794.444214 663.283569,797.493591 
	C663.307800,805.962585 663.280212,814.431824 663.312256,823.763794 
M658.020874,749.446350 
	C656.728943,747.316162 655.522705,745.127563 654.121094,743.072205 
	C652.707825,740.999939 650.926270,739.446594 648.331787,741.358032 
	C646.116089,742.990295 645.059570,744.990051 646.489258,747.808533 
	C650.245361,755.213318 653.881531,762.678894 657.614258,770.095703 
	C658.803528,772.458740 660.308289,774.512451 663.439270,773.043579 
	C666.404358,771.652527 667.047302,769.337280 665.749390,766.435608 
	C663.309204,760.979919 660.832764,755.540466 658.020874,749.446350 
M631.661926,723.838501 
	C630.136597,726.287231 630.895386,728.400269 632.952576,729.948730 
	C634.752563,731.303467 636.520264,730.126221 637.838928,728.901367 
	C639.097900,727.732056 638.814636,726.071411 637.879150,724.785339 
	C636.407410,722.761902 634.640381,721.302429 631.661926,723.838501 
M615.456482,716.622070 
	C617.671753,717.656616 619.386719,716.893860 620.405396,714.886414 
	C621.194031,713.332336 620.967346,711.633728 619.754944,710.260010 
	C618.631836,708.987427 617.090393,708.719666 615.692810,709.468567 
	C612.319641,711.275757 613.568115,713.743347 615.456482,716.622070 
M666.882751,845.995789 
	C670.073547,846.060425 671.893250,844.643677 671.591187,841.309082 
	C671.443787,839.682617 670.269287,838.740295 668.660278,838.442993 
	C667.011902,838.138245 665.744995,838.806763 664.926147,840.190369 
	C663.602478,842.427124 664.339111,844.237427 666.882751,845.995789 
z"/>
<path fill="#000000" opacity="1.000000" stroke="none" 
	d="
M634.877075,576.232788 
	C658.926270,616.437134 634.257263,665.301514 593.261536,673.631226 
	C566.850037,678.997559 545.025757,670.566101 528.564087,648.925049 
	C525.822388,645.320801 525.432617,642.182068 527.383850,637.591125 
	C535.848816,617.674194 537.601807,597.017334 531.481140,576.096008 
	C530.166138,571.601074 531.029114,568.589172 533.908447,565.280945 
	C557.181152,538.542542 599.273315,538.229736 625.564514,564.704285 
	C628.974182,568.137756 632.163452,571.762573 634.877075,576.232788 
z"/>
<path fill="#000000" opacity="1.000000" stroke="none" 
	d="
M701.479004,798.921936 
	C700.600464,786.708862 699.444031,775.021240 695.639160,763.660522 
	C686.879578,737.505859 671.392212,716.483582 648.838013,700.638977 
	C647.515564,699.710022 645.792480,699.176697 645.247009,696.731812 
	C650.795288,692.581360 657.513062,690.505981 664.176575,688.979004 
	C697.790161,681.276245 725.514343,691.573914 747.827759,717.354919 
	C763.293640,735.224243 770.537598,756.010925 770.538330,779.693420 
	C770.538757,794.169861 771.461853,808.644714 770.428162,823.124023 
	C769.757568,832.517700 762.957336,839.228088 753.491577,839.333313 
	C740.174133,839.481384 726.853760,839.437805 713.535156,839.376404 
	C707.470215,839.348450 704.453491,836.904968 702.604431,831.137817 
	C701.467651,827.592163 701.243469,823.918274 701.199951,820.282227 
	C701.116516,813.304321 701.380920,806.322205 701.479004,798.921936 
z"/>
<path fill="#000000" opacity="1.000000" stroke="none" 
	d="
M861.040222,430.747803 
	C858.658020,419.423553 855.391479,408.768250 852.085693,398.132202 
	C850.486877,392.988190 849.772278,387.847473 849.803894,382.438904 
	C849.927673,361.293091 849.771484,340.145721 849.748901,318.998901 
	C849.746948,317.216614 849.292297,315.354065 850.994202,312.575897 
	C865.260925,333.666779 876.163818,355.785919 884.626221,379.091522 
	C907.472412,442.010468 913.519409,506.529053 903.326721,572.454956 
	C900.411987,572.971619 899.744141,571.319336 898.850281,570.276794 
	C891.838562,562.098450 883.023254,556.612061 873.012634,552.971191 
	C870.287170,551.979980 869.159729,550.732605 869.337708,547.560913 
	C870.092102,534.118652 871.263245,520.687500 870.779846,507.192810 
	C869.861328,481.550385 867.302185,456.124329 861.040222,430.747803 
z"/>
<path fill="#000000" opacity="1.000000" stroke="none" 
	d="
M660.036011,604.955078 
	C659.485840,595.943298 657.940247,587.570312 653.867249,579.981201 
	C651.342896,575.277588 652.818909,572.410645 656.512695,569.375610 
	C674.412170,554.668396 701.618408,554.924072 720.739746,570.137085 
	C738.033813,583.896362 744.730469,608.203186 737.156372,629.725037 
	C729.561951,651.304810 710.242493,665.377380 687.739502,665.074219 
	C675.832703,664.913818 664.776184,661.451965 655.332825,653.783447 
	C651.920166,651.012268 650.306091,648.263489 652.751831,643.556702 
	C658.939941,631.648071 661.338013,618.838379 660.036011,604.955078 
z"/>
<path fill="#000000" opacity="1.000000" stroke="none" 
	d="
M816.419678,709.635254 
	C828.239807,724.937988 834.011108,741.993042 834.195129,760.918457 
	C834.316589,773.413574 834.300110,785.912109 834.164307,798.407104 
	C834.010559,812.553406 827.395874,819.046326 813.219788,819.214661 
	C806.888916,819.289856 800.556702,819.344482 794.225769,819.306030 
	C786.106567,819.256714 782.788269,815.921997 782.728027,807.667847 
	C782.662415,798.671082 782.683533,789.672913 782.758850,780.676086 
	C783.076172,742.763916 767.940247,712.685852 737.161865,690.500977 
	C735.709290,689.453979 733.941040,688.681335 733.333313,686.752686 
	C753.021851,674.534302 790.969238,676.794739 816.419678,709.635254 
z"/>
<path fill="#000000" opacity="1.000000" stroke="none" 
	d="
M813.582397,689.343384 
	C812.457336,688.126038 811.154053,687.482727 810.965149,685.444336 
	C815.934814,680.890259 822.336304,678.398193 828.919189,677.157959 
	C851.661499,672.873230 870.650635,679.338074 884.998474,698.011353 
	C895.311768,711.433777 900.283447,726.626404 900.288635,743.502808 
	C900.292786,756.993896 900.342102,770.485046 900.305481,783.976013 
	C900.272888,795.973633 894.071472,802.245972 882.251892,802.302673 
	C874.257324,802.341064 866.262085,802.368286 858.267883,802.305420 
	C850.478027,802.244141 847.286682,799.502136 846.428955,791.892456 
	C845.343994,782.266663 845.862610,772.583252 846.004028,762.939575 
	C846.435242,733.536194 836.095215,708.986938 813.582397,689.343384 
M871.604553,699.671509 
	C867.101135,702.375183 867.626648,706.403381 872.823792,709.629150 
	C874.417908,710.618591 875.876038,710.802551 877.351196,709.586426 
	C878.816406,708.378479 879.065369,706.802917 878.354736,705.127502 
	C877.190979,702.383972 875.015015,700.713501 871.604553,699.671509 
z"/>
<path fill="#000000" opacity="1.000000" stroke="none" 
	d="
M884.376404,584.676758 
	C904.125122,611.673767 890.419128,648.471252 858.184448,654.696106 
	C844.774048,657.285828 831.995728,654.723450 821.541748,644.825012 
	C818.940613,642.362122 818.243713,639.918579 819.669739,636.392578 
	C826.040405,620.640076 825.486572,604.848206 818.919678,589.309387 
	C817.663452,586.336792 818.099365,584.452087 820.067871,582.184937 
	C835.574280,564.325623 866.197998,564.093079 881.830383,581.786072 
	C882.601929,582.659363 883.379700,583.527161 884.376404,584.676758 
z"/>
<path fill="#000000" opacity="1.000000" stroke="none" 
	d="
M770.365234,659.727539 
	C761.649719,661.021545 753.703674,659.511963 745.902222,656.852478 
	C742.063843,655.544067 741.103333,653.619324 743.532898,649.818970 
	C758.863892,625.837463 759.207336,601.375244 745.125122,576.762085 
	C743.016785,573.077148 743.734131,571.806274 747.492615,570.329712 
	C776.224487,559.042236 806.260010,577.670654 809.499146,608.652527 
	C812.328186,635.711731 792.706543,657.040100 770.365234,659.727539 
z"/>
<path fill="#000000" opacity="1.000000" stroke="none" 
	d="
M658.848755,396.323242 
	C651.061829,396.482880 644.632629,394.156616 639.325745,389.071228 
	C623.097595,373.520416 606.760132,358.078644 590.777100,342.278961 
	C581.522217,333.130310 581.989258,317.794220 591.160461,308.444214 
	C600.744263,298.673615 614.693420,298.101227 624.698120,307.422089 
	C633.100098,315.249756 641.157898,323.446442 649.387024,331.460388 
	C650.577576,332.619781 651.878906,333.664764 653.119812,334.773010 
	C655.741516,337.114441 657.900024,337.058502 660.172974,334.044098 
	C668.993713,322.345917 678.030334,310.810608 686.863525,299.121704 
	C703.425110,277.205902 719.821106,255.164551 736.448608,233.299149 
	C744.045898,223.308746 760.001831,221.337814 769.621948,228.843872 
	C779.687378,236.697342 781.496460,250.832352 773.513489,261.385529 
	C742.584045,302.273285 711.584045,343.107635 680.575745,383.935669 
	C675.226501,390.978851 668.499817,395.812225 658.848755,396.323242 
z"/>
</svg>