<svg version="1.2" xmlns="http://www.w3.org/2000/svg" viewBox="0 0 1024 1024" width="1024" height="1024">
	<title>logo(2)-svg</title>
	<style>
		.s0 { fill: #2a3d4e } 
		.s1 { fill: #cc665a } 
	</style>
	<g id="Layer 1">
		<path id="Layer" class="s0" d="m516.7 428c0-56.1 0.2-111.8-0.2-167.4-0.1-20.7 0-41.3-0.1-62-0.2-18.1-0.2-36.3 0.1-54.4 0.1-2.7 0.8-4.2 3.5-5.1 9.1-3.2 15.3-9.3 17.4-19 0.6-2.7 2.1-3.4 4.5-3.4 5.5 0.1 11 0.2 16.5 0 3.3-0.1 4.7 1.2 5.5 4.3 2.6 10.9 9.3 17.7 20.2 20.5 14.4 3.8 29.3-4.5 33-19 1.2-4.8 3.3-6.2 7.9-5.8 4.5 0.4 9 0.1 13.5 0 2.7 0 4.2 0.9 4.9 3.8 2.9 13.2 12.9 21.5 26 22.1 12.1 0.6 24.1-7.5 27.7-19.6 1.5-5.1 3.8-6.7 8.7-6.3 4 0.4 8 0.3 12 0 3.9-0.3 5.5 1.5 6.5 5.1 2.7 10.1 9.2 16.9 19.3 19.7 15.3 4.2 30.5-4.3 34.7-19.7 1.1-4 2.9-5.1 6.5-5 5.4 0.1 10.7 0 16-0.1 2.8-0.1 4 0.8 4.8 3.7 2.6 9.7 8.7 16.4 18.5 19.3 3 0.9 4 2.5 3.9 5.7-0.1 24.2 0.4 48.4-0.2 72.5-0.7 25.7 0.5 51.3 0.1 76.9-1.1 63.3-0.2 126.6-0.5 189.9 0 3.5 0 7 0.3 10.5 0.3 3.2-0.9 4.7-4.1 4.7-11.8 0-23.7 0-35.5-0.1-5.9-0.1-9.3-3-11.2-8.8-3.9-12.2-12.2-18-24.4-18-12.2 0-21.1 6.4-25.2 18.3-1.8 5.4-4.8 8.5-10.7 8.5q-6 0-12-0.1c-5.7-0.2-8.2-3.2-9.7-8.2-3.5-11.8-12.7-18.5-24.9-18.5-12 0.1-21.2 6.7-24.5 18.2-1.6 5.4-4.3 8.2-10.1 8.5-4 0.1-8 0.3-12 0.3-6.2 0-10.3-2.7-12.2-8.9-2.5-8.3-7.8-14.3-16.3-16.9-15.1-4.6-28.1 1.9-33.5 16.8-2 5.6-5.4 8.6-11.5 8.5-5 0-10 0.2-14.9 0.4-11.8 0.6-17.7-2.7-18.2-17.9-0.5-14.5-0.1-29-0.1-43.5 0-3.3 0-6.7 0-10.5zm68.5-41.7c30.6 31.4 67.1 43.5 110.1 32.6 51-13 92.4-66.4 82-124.9-0.8-4.5 0.1-6.9 3.9-9.4 18.8-12.9 25.2-39.1 14.9-59.1-14.1-27.4-48.5-33.8-72.1-13.2-3.3 2.8-5.5 2.8-9.1 0.8-14.2-7.9-29.5-12.2-45.7-12.7-21.5-0.7-41.3 5-59.2 16.7-33.6 21.9-52.6 52.5-53.8 93.2-0.9 29 9 54.1 29 76z"/>
		<path id="Layer" class="s1" d="m291.9 306.9c20.8-24.7 45-44.9 71.7-62.2 30.2-19.5 62.5-34 97.7-42.1 8.9-2.1 17.8-3.8 26.9-5.2 5.8-0.9 6.1-0.6 6.1 5.7q0 67-0.1 133.9c0 25-0.2 50 0 75 0.1 12.4-1.6 24.6-2 36.9-0.6 15.1 1.9 29.9 2.4 44.9 0.4 13.4 12.3 26.8 25.2 30.7 12.4 3.8 25.1 3.3 37.6 1.6 11.6-1.6 19.9-8.8 25.1-19.3 0.7-1.4 1-3.3 3.2-3.3 2 0 2.8 1.5 3.5 3 6.4 14 17.9 20.2 32.6 21 9.3 0.5 18.6 0.3 27.4-3.5 7.8-3.5 13.4-9.2 17.5-16.6 0.8-1.6 1.5-3.6 3.7-3.5 2.3 0 2.8 2.1 3.6 3.7 6.1 12 16 18.5 29.4 19.3 8.6 0.5 17.2 1.3 25.6-1.9 8.8-3.3 15.4-9 19.8-17.3 0.9-1.7 1.4-4.1 3.9-4.1 2.6-0.1 3 2.2 3.9 3.9 6.5 12.1 16.9 18.3 30.2 19 11.5 0.6 23 0.6 34.5-0.3 5.9-0.4 6.7 0.3 6.7 6.2 0 6.9-0.1 13.7 0.1 20.5 0.1 3.1-0.9 5-3.8 6.3-4.7 2.1-9.2 4.7-13 8.3-2.5 2.4-4.3 2-6.7-0.2-18.1-16.4-39.3-20.7-61.8-12.8-9 3.1-14.5 2.1-22.1-2.9-21.7-14.4-52.5-12.5-73.6 3.7-4.2 3.3-6.3 2.3-9.3-1-13.2-14.3-29-23.9-48.6-26.4-23.1-3-43.9 2.4-61.6 18.1-4.5 4-5.1 4-8.7-1.3-12.1-18-27.5-32-47.9-40-28.5-11.2-55.8-8-82 7.1-4.3 2.5-8.4 5.2-12.5 8.9-18.6-27.9-42.6-47.4-75.8-53.3-33.2-6-62.4 3.5-88.8 24.3 5.7-70.6 33.6-131.5 80-184.8z"/>
		<path id="Layer" class="s0" d="m142.8 759.9c30.5-45 72.2-71.5 126-76.7 41.4-4.1 79.1 7.6 112.5 32.6 33.6 25.2 55 58.1 61.6 99.8 3.1 20 3.1 40.4 1.3 60.7-1 10.9-10.3 18.6-22.2 18.9-10.8 0.2-21.6 0.1-32.5 0.1q-124.6 0-249.3 0c-16.6 0-24.9-8.2-25.2-24.8-0.1-3.6 0-7.3 0-11 0.3-15.1 0.7-30.2 4.2-45.1 4.6-19.5 12.3-37.6 23.6-54.5z"/>
		<path id="Layer" class="s0" d="m186.8 650.3c3 9.1 6.4 17.6 10.2 25.9 0.8 1.9 1.3 3.4-1 4.6-9.9 5.1-19.7 10.5-30 16.9-15.7-32.1-25.4-65.5-31.1-100.1-16.2-98.9-0.2-192.5 49.8-279.3 46.4-80.6 112.5-140 199.2-175.3 37.8-15.4 76.9-26 118.1-28.5 0 3.4-1.8 4.9-2.8 6.7-4.6 8-5.6 16.6-4.9 25.6 0.2 3.3-0.7 5.1-4.5 5.6-30.7 3.9-60.3 12.1-88.9 23.8-36.4 14.9-69.9 34.6-99.8 60.2-49.9 42.6-87.2 94.4-110.1 156.3-11.3 30.4-18.8 61.7-22.4 93.9-2.7 24.8-2.7 49.8-0.6 74.8 2.6 30.3 8.4 59.9 18.8 88.9z"/>
		<path id="Layer" class="s0" d="m362.8 539.3c14.6 34.6 10 66.4-12.8 95.5-35.4 45.2-113.2 44-143.5-15.1-20.6-40.3-11.2-85.4 23.8-113.7 30.2-24.4 77.8-23.6 107.3 1.6 10.4 8.9 19 19.1 25.2 31.7z"/>
		<path id="Layer" class="s0" d="m425.8 694.6c50.1-3.6 89.7 15.7 121.1 53.1 19.9 23.6 28.4 51.6 29.1 82.1 0.4 15.3 1.2 30.7-0.6 45.9-1.5 12.6-9.8 19.5-22.5 19.6-22.4 0.1-44.9 0-67.4 0-11.5 0-17.6-5.9-17.8-17.5-0.1-11.8-0.1-23.6 0-35.4 0.1-32.6-7.8-62.9-24.7-90.8-11-18.1-25.3-33-42-45.8-1.3-0.9-3-1.6-3.6-4.1 8.8-4 18.2-6.2 28.4-7.1z"/>
		<path id="Layer" class="s0" d="m474.3 528.6c21.6 13.1 36.3 31 41.5 55.9 10.5 50.4-32 101.9-87.5 94-24.4-3.4-42-16.5-54.7-36.9-1.8-2.9-1.8-5.3 0.1-8.3 12.6-20.6 17.1-43.1 14.9-67-0.6-6.1-1.6-12.2-3.9-18-1.2-3.1-0.5-5.2 1.7-7.5 16.8-17.6 37.6-23 61-20.7 9.4 0.9 18.2 4 26.9 8.5z"/>
		<path id="Layer" class="s0" d="m657.5 726.6c20.3 22.3 30.8 48.2 31 78.2 0 13.4 1 26.7-0.1 40-1 12.7-8.3 20.7-20.9 21-21.5 0.6-43 0.4-64.5 0.4-5.2 0-7.9-2.7-8.4-8-1.1-10.1-0.6-20.3-0.6-30.4 0-45-17.1-81.9-51.5-110.7-4.2-3.5-8.3-7-13.4-11.2 22-11.9 44.2-14.9 67.8-11.4 23.9 3.5 43.3 15.2 60.6 32.1zm5.8 97.2c0.4 3 2 5.1 5.2 4.7 2.7-0.3 4-2.5 4.1-5 0.1-8.8 0.1-17.6-0.1-26.4-0.1-2.8-1.4-5.8-5-5.7-3.8 0.1-4.2 3-4.2 6.1 0 8.5 0 16.9 0 26.3zm-5.3-74.4c-1.3-2.1-2.5-4.3-3.9-6.3-1.4-2.1-3.2-3.7-5.8-1.7-2.2 1.6-3.2 3.6-1.8 6.4 3.7 7.4 7.4 14.9 11.1 22.3 1.2 2.4 2.7 4.4 5.8 2.9 3-1.3 3.6-3.7 2.3-6.6-2.4-5.4-4.9-10.9-7.7-17zm-26.3-25.6c-1.6 2.5-0.8 4.6 1.3 6.1 1.8 1.4 3.5 0.2 4.8-1 1.3-1.2 1-2.8 0.1-4.1-1.5-2-3.3-3.5-6.2-1zm-16.2-7.2c2.2 1.1 3.9 0.3 4.9-1.7 0.8-1.6 0.6-3.3-0.6-4.6-1.2-1.3-2.7-1.6-4.1-0.8-3.4 1.8-2.1 4.2-0.2 7.1zm51.4 129.4c3.2 0.1 5-1.4 4.7-4.7-0.2-1.6-1.3-2.6-2.9-2.9-1.7-0.3-3 0.4-3.8 1.8-1.3 2.2-0.6 4 2 5.8z"/>
		<path id="Layer" class="s0" d="m634.9 576.2c24 40.2-0.6 89.1-41.6 97.4-26.4 5.4-48.3-3-64.7-24.7-2.8-3.6-3.2-6.7-1.2-11.3 8.4-19.9 10.2-40.6 4.1-61.5-1.3-4.5-0.5-7.5 2.4-10.8 23.3-26.8 65.4-27.1 91.7-0.6 3.4 3.4 6.6 7.1 9.3 11.5z"/>
		<path id="Layer" class="s0" d="m701.5 798.9c-0.9-12.2-2.1-23.9-5.9-35.2-8.7-26.2-24.2-47.2-46.8-63.1-1.3-0.9-3-1.4-3.6-3.9 5.6-4.1 12.3-6.2 19-7.7 33.6-7.7 61.3 2.6 83.6 28.4 15.5 17.8 22.7 38.6 22.7 62.3 0 14.5 1 28.9-0.1 43.4-0.6 9.4-7.4 16.1-16.9 16.2-13.3 0.2-26.6 0.1-40 0.1-6-0.1-9-2.5-10.9-8.3-1.1-3.5-1.4-7.2-1.4-10.8-0.1-7 0.2-14 0.3-21.4z"/>
		<path id="Layer" class="s0" d="m861 430.7c-2.3-11.3-5.6-21.9-8.9-32.6-1.6-5.1-2.3-10.3-2.3-15.7 0.1-21.1 0-42.3-0.1-63.4 0-1.8-0.4-3.6 1.3-6.4 14.3 21.1 25.2 43.2 33.6 66.5 22.9 62.9 28.9 127.4 18.7 193.4-2.9 0.5-3.6-1.2-4.4-2.2-7.1-8.2-15.9-13.7-25.9-17.3-2.7-1-3.8-2.3-3.7-5.4 0.8-13.5 2-26.9 1.5-40.4-0.9-25.6-3.5-51.1-9.8-76.5z"/>
		<path id="Layer" class="s0" d="m660 605c-0.5-9.1-2.1-17.4-6.1-25-2.6-4.7-1.1-7.6 2.6-10.6 17.9-14.7 45.1-14.5 64.2 0.7 17.3 13.8 24 38.1 16.5 59.6-7.6 21.6-27 35.7-49.5 35.4-11.9-0.2-22.9-3.6-32.4-11.3-3.4-2.8-5-5.5-2.5-10.2 6.1-12 8.5-24.8 7.2-38.6z"/>
		<path id="Layer" class="s0" d="m816.4 709.6c11.8 15.3 17.6 32.4 17.8 51.3q0.2 18.8 0 37.5c-0.2 14.2-6.8 20.6-21 20.8-6.3 0.1-12.6 0.1-19 0.1-8.1 0-11.4-3.4-11.5-11.6q-0.1-13.5 0.1-27c0.3-37.9-14.9-68-45.6-90.2-1.5-1-3.3-1.8-3.9-3.7 19.7-12.3 57.7-10 83.1 22.8z"/>
		<path id="Layer" class="s0" d="m813.6 689.3c-1.1-1.2-2.4-1.8-2.6-3.9 4.9-4.5 11.3-7 17.9-8.2 22.8-4.3 41.8 2.1 56.1 20.8 10.3 13.4 15.3 28.6 15.3 45.5 0 13.5 0 27 0 40.5 0 12-6.2 18.2-18 18.3-8 0-16 0.1-24 0-7.8-0.1-11-2.8-11.9-10.4-1.1-9.6-0.5-19.3-0.4-29 0.4-29.4-9.9-53.9-32.4-73.6zm58 10.4c-4.5 2.7-4 6.7 1.2 9.9 1.6 1 3.1 1.2 4.6 0 1.4-1.2 1.7-2.8 1-4.5-1.2-2.7-3.4-4.4-6.8-5.4z"/>
		<path id="Layer" class="s0" d="m884.4 584.7c19.7 27 6 63.8-26.2 70-13.4 2.6-26.2 0-36.7-9.9-2.6-2.4-3.3-4.9-1.8-8.4 6.3-15.8 5.8-31.6-0.8-47.1-1.2-3-0.8-4.8 1.2-7.1 15.5-17.9 46.1-18.1 61.7-0.4 0.8 0.9 1.6 1.7 2.6 2.9z"/>
		<path id="Layer" class="s0" d="m770.4 659.7c-8.8 1.3-16.7-0.2-24.5-2.8-3.8-1.4-4.8-3.3-2.4-7.1 15.4-24 15.7-48.4 1.6-73-2.1-3.7-1.4-5 2.4-6.5 28.7-11.3 58.8 7.4 62 38.4 2.8 27-16.8 48.3-39.1 51z"/>
		<path id="Layer" class="s1" d="m658.8 396.3c-7.7 0.2-14.2-2.1-19.5-7.2-16.2-15.6-32.5-31-48.5-46.8-9.3-9.2-8.8-24.5 0.4-33.9 9.5-9.7 23.5-10.3 33.5-1 8.4 7.8 16.5 16 24.7 24.1 1.2 1.1 2.5 2.2 3.7 3.3 2.6 2.3 4.8 2.3 7.1-0.8 8.8-11.7 17.8-23.2 26.7-34.9 16.5-21.9 32.9-43.9 49.5-65.8 7.6-10 23.6-12 33.2-4.5 10.1 7.9 11.9 22 3.9 32.6-30.9 40.9-61.9 81.7-92.9 122.5-5.4 7.1-12.1 11.9-21.8 12.4z"/>
	</g>
</svg>